<?xml version="1.0" encoding="UTF-8" standalone="no"?>
<svg
   xmlns:dc="http://purl.org/dc/elements/1.1/"
   xmlns:cc="http://creativecommons.org/ns#"
   xmlns:rdf="http://www.w3.org/1999/02/22-rdf-syntax-ns#"
   xmlns:svg="http://www.w3.org/2000/svg"
   xmlns="http://www.w3.org/2000/svg"
   version="1.1"
   id="svg6565"
   viewBox="0 0 512 512"
   role="img"
   class="svg-inline--fa fa-check fa-w-16"
   data-icon="check"
   data-prefix="fas"
   focusable="false"
   aria-hidden="true">
  <metadata
     id="metadata6573">
    <rdf:RDF>
      <cc:Work
         rdf:about="">
        <dc:format>image/svg+xml</dc:format>
        <dc:type
           rdf:resource="http://purl.org/dc/dcmitype/StillImage" />
        <dc:title></dc:title>
      </cc:Work>
    </rdf:RDF>
  </metadata>
  <defs
     id="defs6571" />
  <path
     id="path6567"
     d="M173.898 439.404l-166.4-166.4c-9.997-9.997-9.997-26.206 0-36.204l36.203-36.204c9.997-9.998 26.207-9.998 36.204 0L192 312.69 432.095 72.596c9.997-9.997 26.207-9.997 36.204 0l36.203 36.204c9.997 9.997 9.997 26.206 0 36.204l-294.4 294.401c-9.998 9.997-26.207 9.997-36.204-.001z"
     fill="currentColor" />
  <path
     id="path6575"
     d="m 183.71269,445.08804 c -1.39177,-0.49609 -4.04877,-1.95546 -5.90445,-3.24303 -1.85569,-1.28758 -41.75967,-40.80163 -88.675518,-87.809 -94.4984214,-94.6828 -88.50677315,-87.94754 -88.4129594,-99.3856 0.0806636,-9.83474 1.2476676,-11.46568 25.5099854,-35.65117 15.637185,-15.58766 22.738682,-22.09021 25.476348,-23.32761 5.225954,-2.36209 14.992781,-2.36841 20.243822,-0.0131 2.923051,1.31111 17.127581,15.02604 61.783542,59.654 L 191.7213,313.26402 313.39738,191.67619 C 401.60747,103.53007 436.11746,69.56528 438.86919,68.186605 c 5.7011,-2.856362 14.20461,-3.167436 20.66557,-0.755985 4.6649,1.741101 6.7514,3.579361 26.66214,23.490106 19.68112,19.681114 21.76169,22.035104 23.40692,26.482914 2.2999,6.21765 2.3083,12.65606 0.0247,18.91529 -1.71412,4.69832 -7.42624,10.52908 -152.03954,155.19747 -166.74681,166.81032 -153.72565,154.64778 -165.44139,154.53199 -3.24745,-0.032 -7.04316,-0.46425 -8.43492,-0.96035 z"
     style="fill:#800080;fill-opacity:1;stroke:none;stroke-opacity:1" />
</svg>
